<mxfile host="app.diagrams.net" agent="Mozilla/5.0 (Macintosh; Intel Mac OS X 10_15_7) AppleWebKit/537.36 (KHTML, like Gecko) Chrome/131.0.0.0 Safari/537.36" version="24.9.0">
  <diagram name="PÃ¡gina-1" id="ctmEYIWH0Jxgt6QVY9Xr">
    <mxGraphModel dx="2089" dy="578" grid="0" gridSize="10" guides="1" tooltips="1" connect="1" arrows="1" fold="1" page="0" pageScale="1" pageWidth="827" pageHeight="1169" math="0" shadow="0">
      <root>
        <mxCell id="0" />
        <mxCell id="1" parent="0" />
        <mxCell id="XVsmHcTAchvT7u45jq_P-10" style="edgeStyle=none;curved=1;rounded=0;orthogonalLoop=1;jettySize=auto;html=1;exitX=0.5;exitY=1;exitDx=0;exitDy=0;entryX=0.25;entryY=0;entryDx=0;entryDy=0;fontSize=12;startSize=8;endSize=8;" edge="1" parent="1" source="XVsmHcTAchvT7u45jq_P-3" target="XVsmHcTAchvT7u45jq_P-6">
          <mxGeometry relative="1" as="geometry" />
        </mxCell>
        <mxCell id="XVsmHcTAchvT7u45jq_P-3" value="Company A" style="rounded=1;whiteSpace=wrap;html=1;" vertex="1" parent="1">
          <mxGeometry x="39" y="582" width="110" height="55" as="geometry" />
        </mxCell>
        <mxCell id="XVsmHcTAchvT7u45jq_P-11" style="edgeStyle=none;curved=1;rounded=0;orthogonalLoop=1;jettySize=auto;html=1;exitX=0.5;exitY=1;exitDx=0;exitDy=0;entryX=0.5;entryY=0;entryDx=0;entryDy=0;fontSize=12;startSize=8;endSize=8;" edge="1" parent="1" source="XVsmHcTAchvT7u45jq_P-4" target="XVsmHcTAchvT7u45jq_P-6">
          <mxGeometry relative="1" as="geometry" />
        </mxCell>
        <mxCell id="XVsmHcTAchvT7u45jq_P-4" value="Company B" style="rounded=1;whiteSpace=wrap;html=1;" vertex="1" parent="1">
          <mxGeometry x="226" y="582" width="110" height="55" as="geometry" />
        </mxCell>
        <mxCell id="XVsmHcTAchvT7u45jq_P-12" style="edgeStyle=none;curved=1;rounded=0;orthogonalLoop=1;jettySize=auto;html=1;exitX=0.5;exitY=1;exitDx=0;exitDy=0;entryX=0.75;entryY=0;entryDx=0;entryDy=0;fontSize=12;startSize=8;endSize=8;" edge="1" parent="1" source="XVsmHcTAchvT7u45jq_P-5" target="XVsmHcTAchvT7u45jq_P-6">
          <mxGeometry relative="1" as="geometry" />
        </mxCell>
        <mxCell id="XVsmHcTAchvT7u45jq_P-5" value="Company C" style="rounded=1;whiteSpace=wrap;html=1;" vertex="1" parent="1">
          <mxGeometry x="413" y="582" width="110" height="55" as="geometry" />
        </mxCell>
        <mxCell id="XVsmHcTAchvT7u45jq_P-6" value="Public Blockchain&lt;div&gt;(Decentralized and transparent ledger)&lt;/div&gt;" style="rounded=1;whiteSpace=wrap;html=1;" vertex="1" parent="1">
          <mxGeometry x="95.5" y="709" width="371" height="103" as="geometry" />
        </mxCell>
        <mxCell id="XVsmHcTAchvT7u45jq_P-13" style="edgeStyle=none;curved=1;rounded=0;orthogonalLoop=1;jettySize=auto;html=1;exitX=0.5;exitY=0;exitDx=0;exitDy=0;entryX=0.5;entryY=1;entryDx=0;entryDy=0;fontSize=12;startSize=8;endSize=8;" edge="1" parent="1" source="XVsmHcTAchvT7u45jq_P-7" target="XVsmHcTAchvT7u45jq_P-6">
          <mxGeometry relative="1" as="geometry" />
        </mxCell>
        <mxCell id="XVsmHcTAchvT7u45jq_P-7" value="Auditor&amp;nbsp;&lt;div&gt;Direct unrestricted access&lt;/div&gt;" style="rounded=1;whiteSpace=wrap;html=1;" vertex="1" parent="1">
          <mxGeometry x="196.5" y="855" width="169" height="80" as="geometry" />
        </mxCell>
        <mxCell id="XVsmHcTAchvT7u45jq_P-14" value="Public blockchain:" style="text;strokeColor=none;fillColor=none;html=1;align=center;verticalAlign=middle;whiteSpace=wrap;rounded=0;fontSize=16;" vertex="1" parent="1">
          <mxGeometry x="-36" y="524" width="192" height="30" as="geometry" />
        </mxCell>
        <mxCell id="XVsmHcTAchvT7u45jq_P-17" style="edgeStyle=none;curved=1;rounded=0;orthogonalLoop=1;jettySize=auto;html=1;exitX=0.5;exitY=1;exitDx=0;exitDy=0;entryX=0.5;entryY=0;entryDx=0;entryDy=0;fontSize=12;startSize=8;endSize=8;" edge="1" parent="1" source="XVsmHcTAchvT7u45jq_P-18" target="XVsmHcTAchvT7u45jq_P-21">
          <mxGeometry relative="1" as="geometry" />
        </mxCell>
        <mxCell id="XVsmHcTAchvT7u45jq_P-18" value="Company A" style="rounded=1;whiteSpace=wrap;html=1;" vertex="1" parent="1">
          <mxGeometry x="960" y="582" width="110" height="55" as="geometry" />
        </mxCell>
        <mxCell id="XVsmHcTAchvT7u45jq_P-21" value="Private Blockchain&lt;div&gt;(Controlled by the company. Permissioned network)&lt;/div&gt;" style="rounded=1;whiteSpace=wrap;html=1;" vertex="1" parent="1">
          <mxGeometry x="829.5" y="709" width="371" height="103" as="geometry" />
        </mxCell>
        <mxCell id="XVsmHcTAchvT7u45jq_P-22" style="edgeStyle=none;curved=1;rounded=0;orthogonalLoop=1;jettySize=auto;html=1;exitX=0.5;exitY=0;exitDx=0;exitDy=0;entryX=0.5;entryY=1;entryDx=0;entryDy=0;fontSize=12;startSize=8;endSize=8;" edge="1" parent="1" source="XVsmHcTAchvT7u45jq_P-23" target="XVsmHcTAchvT7u45jq_P-21">
          <mxGeometry relative="1" as="geometry" />
        </mxCell>
        <mxCell id="XVsmHcTAchvT7u45jq_P-23" value="Auditor&amp;nbsp;&lt;div&gt;Permision accessed&lt;/div&gt;" style="rounded=1;whiteSpace=wrap;html=1;" vertex="1" parent="1">
          <mxGeometry x="930.5" y="855" width="169" height="80" as="geometry" />
        </mxCell>
        <mxCell id="XVsmHcTAchvT7u45jq_P-24" value="Private blockchain:" style="text;strokeColor=none;fillColor=none;html=1;align=center;verticalAlign=middle;whiteSpace=wrap;rounded=0;fontSize=16;" vertex="1" parent="1">
          <mxGeometry x="698" y="524" width="192" height="30" as="geometry" />
        </mxCell>
        <mxCell id="XVsmHcTAchvT7u45jq_P-25" style="edgeStyle=none;curved=1;rounded=0;orthogonalLoop=1;jettySize=auto;html=1;exitX=0.5;exitY=1;exitDx=0;exitDy=0;entryX=0.25;entryY=0;entryDx=0;entryDy=0;fontSize=12;startSize=8;endSize=8;" edge="1" parent="1" source="XVsmHcTAchvT7u45jq_P-26" target="XVsmHcTAchvT7u45jq_P-31">
          <mxGeometry relative="1" as="geometry" />
        </mxCell>
        <mxCell id="XVsmHcTAchvT7u45jq_P-26" value="Company A" style="rounded=1;whiteSpace=wrap;html=1;" vertex="1" parent="1">
          <mxGeometry x="39" y="1095" width="110" height="55" as="geometry" />
        </mxCell>
        <mxCell id="XVsmHcTAchvT7u45jq_P-27" style="edgeStyle=none;curved=1;rounded=0;orthogonalLoop=1;jettySize=auto;html=1;exitX=0.5;exitY=1;exitDx=0;exitDy=0;entryX=0.5;entryY=0;entryDx=0;entryDy=0;fontSize=12;startSize=8;endSize=8;" edge="1" parent="1" source="XVsmHcTAchvT7u45jq_P-28" target="XVsmHcTAchvT7u45jq_P-31">
          <mxGeometry relative="1" as="geometry" />
        </mxCell>
        <mxCell id="XVsmHcTAchvT7u45jq_P-28" value="Company B" style="rounded=1;whiteSpace=wrap;html=1;" vertex="1" parent="1">
          <mxGeometry x="226" y="1095" width="110" height="55" as="geometry" />
        </mxCell>
        <mxCell id="XVsmHcTAchvT7u45jq_P-29" style="edgeStyle=none;curved=1;rounded=0;orthogonalLoop=1;jettySize=auto;html=1;exitX=0.5;exitY=1;exitDx=0;exitDy=0;entryX=0.75;entryY=0;entryDx=0;entryDy=0;fontSize=12;startSize=8;endSize=8;" edge="1" parent="1" source="XVsmHcTAchvT7u45jq_P-30" target="XVsmHcTAchvT7u45jq_P-31">
          <mxGeometry relative="1" as="geometry" />
        </mxCell>
        <mxCell id="XVsmHcTAchvT7u45jq_P-30" value="Company C" style="rounded=1;whiteSpace=wrap;html=1;" vertex="1" parent="1">
          <mxGeometry x="413" y="1095" width="110" height="55" as="geometry" />
        </mxCell>
        <mxCell id="XVsmHcTAchvT7u45jq_P-31" value="Consortium Blockchain&lt;div&gt;(Controlled by authorized members. Permissioned and shared)&lt;/div&gt;" style="rounded=1;whiteSpace=wrap;html=1;" vertex="1" parent="1">
          <mxGeometry x="95.5" y="1222" width="371" height="103" as="geometry" />
        </mxCell>
        <mxCell id="XVsmHcTAchvT7u45jq_P-32" style="edgeStyle=none;curved=1;rounded=0;orthogonalLoop=1;jettySize=auto;html=1;exitX=0.5;exitY=0;exitDx=0;exitDy=0;entryX=0.5;entryY=1;entryDx=0;entryDy=0;fontSize=12;startSize=8;endSize=8;" edge="1" parent="1" source="XVsmHcTAchvT7u45jq_P-33" target="XVsmHcTAchvT7u45jq_P-31">
          <mxGeometry relative="1" as="geometry" />
        </mxCell>
        <mxCell id="XVsmHcTAchvT7u45jq_P-33" value="Auditor&amp;nbsp;&lt;div&gt;Permissioned access&lt;/div&gt;" style="rounded=1;whiteSpace=wrap;html=1;" vertex="1" parent="1">
          <mxGeometry x="196.5" y="1368" width="169" height="80" as="geometry" />
        </mxCell>
        <mxCell id="XVsmHcTAchvT7u45jq_P-34" value="Consortium blockchain:" style="text;strokeColor=none;fillColor=none;html=1;align=center;verticalAlign=middle;whiteSpace=wrap;rounded=0;fontSize=16;" vertex="1" parent="1">
          <mxGeometry x="-36" y="1037" width="192" height="30" as="geometry" />
        </mxCell>
        <mxCell id="XVsmHcTAchvT7u45jq_P-35" style="edgeStyle=none;curved=1;rounded=0;orthogonalLoop=1;jettySize=auto;html=1;exitX=0.5;exitY=1;exitDx=0;exitDy=0;entryX=0.5;entryY=0;entryDx=0;entryDy=0;fontSize=12;startSize=8;endSize=8;" edge="1" parent="1" source="XVsmHcTAchvT7u45jq_P-36" target="XVsmHcTAchvT7u45jq_P-37">
          <mxGeometry relative="1" as="geometry" />
        </mxCell>
        <mxCell id="XVsmHcTAchvT7u45jq_P-36" value="Company A" style="rounded=1;whiteSpace=wrap;html=1;" vertex="1" parent="1">
          <mxGeometry x="960" y="1095" width="110" height="55" as="geometry" />
        </mxCell>
        <mxCell id="XVsmHcTAchvT7u45jq_P-39" style="edgeStyle=none;curved=1;rounded=0;orthogonalLoop=1;jettySize=auto;html=1;exitX=0.5;exitY=1;exitDx=0;exitDy=0;entryX=0.5;entryY=0;entryDx=0;entryDy=0;fontSize=12;startSize=8;endSize=8;" edge="1" parent="1" source="XVsmHcTAchvT7u45jq_P-37" target="XVsmHcTAchvT7u45jq_P-38">
          <mxGeometry relative="1" as="geometry" />
        </mxCell>
        <mxCell id="XVsmHcTAchvT7u45jq_P-37" value="Private Blockchain&lt;div&gt;(Sensitive data. Restricted)&lt;/div&gt;" style="rounded=1;whiteSpace=wrap;html=1;" vertex="1" parent="1">
          <mxGeometry x="829.5" y="1222" width="371" height="103" as="geometry" />
        </mxCell>
        <mxCell id="XVsmHcTAchvT7u45jq_P-41" style="edgeStyle=none;curved=1;rounded=0;orthogonalLoop=1;jettySize=auto;html=1;exitX=0.23;exitY=1;exitDx=0;exitDy=0;entryX=0.5;entryY=0;entryDx=0;entryDy=0;fontSize=12;startSize=8;endSize=8;exitPerimeter=0;" edge="1" parent="1" source="XVsmHcTAchvT7u45jq_P-38" target="XVsmHcTAchvT7u45jq_P-40">
          <mxGeometry relative="1" as="geometry" />
        </mxCell>
        <mxCell id="XVsmHcTAchvT7u45jq_P-38" value="Hybrid Gateway&lt;div&gt;(Interface between private and public blockchain)&lt;/div&gt;" style="rounded=1;whiteSpace=wrap;html=1;" vertex="1" parent="1">
          <mxGeometry x="829.5" y="1368" width="371" height="103" as="geometry" />
        </mxCell>
        <mxCell id="XVsmHcTAchvT7u45jq_P-40" value="Public Blockchain&lt;div&gt;(Selective transparency)&lt;/div&gt;" style="rounded=1;whiteSpace=wrap;html=1;" vertex="1" parent="1">
          <mxGeometry x="829.5" y="1511" width="169" height="80" as="geometry" />
        </mxCell>
        <mxCell id="XVsmHcTAchvT7u45jq_P-44" style="edgeStyle=none;curved=1;rounded=0;orthogonalLoop=1;jettySize=auto;html=1;exitX=0.5;exitY=0;exitDx=0;exitDy=0;entryX=0.5;entryY=1;entryDx=0;entryDy=0;fontSize=12;startSize=8;endSize=8;" edge="1" parent="1" source="XVsmHcTAchvT7u45jq_P-43" target="XVsmHcTAchvT7u45jq_P-40">
          <mxGeometry relative="1" as="geometry" />
        </mxCell>
        <mxCell id="XVsmHcTAchvT7u45jq_P-43" value="Other companies&lt;div&gt;(Access to public data only)&lt;/div&gt;" style="rounded=1;whiteSpace=wrap;html=1;" vertex="1" parent="1">
          <mxGeometry x="829.5" y="1649" width="169" height="80" as="geometry" />
        </mxCell>
        <mxCell id="XVsmHcTAchvT7u45jq_P-46" style="edgeStyle=none;curved=1;rounded=0;orthogonalLoop=1;jettySize=auto;html=1;exitX=0;exitY=0.5;exitDx=0;exitDy=0;entryX=1;entryY=0.5;entryDx=0;entryDy=0;fontSize=12;startSize=8;endSize=8;" edge="1" parent="1" source="XVsmHcTAchvT7u45jq_P-45" target="XVsmHcTAchvT7u45jq_P-40">
          <mxGeometry relative="1" as="geometry" />
        </mxCell>
        <mxCell id="XVsmHcTAchvT7u45jq_P-47" style="edgeStyle=none;curved=0;rounded=0;orthogonalLoop=1;jettySize=auto;html=1;exitX=0.5;exitY=0;exitDx=0;exitDy=0;entryX=1;entryY=0.5;entryDx=0;entryDy=0;fontSize=12;startSize=8;endSize=8;" edge="1" parent="1" source="XVsmHcTAchvT7u45jq_P-45" target="XVsmHcTAchvT7u45jq_P-37">
          <mxGeometry relative="1" as="geometry">
            <Array as="points">
              <mxPoint x="1369" y="1274" />
            </Array>
          </mxGeometry>
        </mxCell>
        <mxCell id="XVsmHcTAchvT7u45jq_P-45" value="Auditor&lt;div&gt;(Access to both private and public data with permission)&lt;/div&gt;" style="rounded=1;whiteSpace=wrap;html=1;" vertex="1" parent="1">
          <mxGeometry x="1284" y="1511" width="169" height="80" as="geometry" />
        </mxCell>
        <mxCell id="XVsmHcTAchvT7u45jq_P-48" value="Hybrid blockchain:" style="text;strokeColor=none;fillColor=none;html=1;align=center;verticalAlign=middle;whiteSpace=wrap;rounded=0;fontSize=16;" vertex="1" parent="1">
          <mxGeometry x="698" y="1051" width="192" height="30" as="geometry" />
        </mxCell>
      </root>
    </mxGraphModel>
  </diagram>
</mxfile>
